# xmcd
#
# Track frame offsets:
#	150
#	10534
#	23338
#	32640
#	47550
#	58597
#	73085
#	93700
#	108657
#	118427
#	129857
#	148970
#	167802
#	180420
#	192160
#	203840
#	218070
#	231992
#
# Disc length: 3317 seconds
#
# Revision: 1
# Processed by: cddbd v1.5.1PL2 Copyright (c) Steve Scherf et al.
# Submitted via: audiograbber 1.83.01
#
DISCID=fe0cf312
DTITLE=Various Artist - It's Country Time - Blue Bayou
DYEAR=1999
DGENRE=Country
TTITLE0=Belamy Brothers - Sugar Daddy
TTITLE1=Lynn Anderson - Rose Garden
TTITLE2=The Hollywood Filmfestival Orchestra - High Noon
TTITLE3=Nitty Gritty Dirt Band - Home Again In My Heart
TTITLE4=Tammy Wynette - D.i.v.o.r.c.e
TTITLE5=Sweethearts Of The Rodeo - Chains Of Gold
TTITLE6=Tanya Tucker - Texas, Wwhen I Die
TTITLE7=George Jones - I Always Get Lucky With You
TTITLE8=Gene Watson - Pick The Wildwood Flowers
TTITLE9=Kathy Mattea - Street Talk
TTITLE10=Freddy Fender - Secret Love
TTITLE11=Gall Davies - I'll Be Your Baby
TTITLE12=Mel Tillis - In The Middle Of The Night
TTITLE13=Tex Williams - Smoke, Smoke, Smoke That Cigarette
TTITLE14=T.G.(The Good) Sheppard - Only One You
TTITLE15=Mickey Gilley - Your Memory Is't What It Used To Be
TTITLE16=Rockin' Sidney - My Toot Toot
TTITLE17=Lynn Anderson - Blue Bayou
EXTD=
EXTT0=
EXTT1=
EXTT2=
EXTT3=
EXTT4=
EXTT5=
EXTT6=
EXTT7=
EXTT8=
EXTT9=
EXTT10=
EXTT11=
EXTT12=
EXTT13=
EXTT14=
EXTT15=
EXTT16=
EXTT17=
PLAYORDER=
